<svg width="26" height="26" viewBox="0 0 26 26" fill="none" xmlns="http://www.w3.org/2000/svg">
<path d="M6.30938 3.93467L13 10.6253L19.656 3.96934C19.8031 3.81285 19.9802 3.68767 20.1768 3.60129C20.3733 3.51491 20.5853 3.46913 20.8 3.46667C21.2598 3.46667 21.7006 3.64929 22.0257 3.97436C22.3508 4.29942 22.5334 4.7403 22.5334 5.20001C22.5374 5.41252 22.498 5.62361 22.4175 5.82034C22.337 6.01706 22.2172 6.19526 22.0654 6.34401L15.3227 13L22.0654 19.7427C22.3511 20.0222 22.5186 20.4006 22.5334 20.8C22.5334 21.2597 22.3508 21.7006 22.0257 22.0257C21.7006 22.3507 21.2598 22.5333 20.8 22.5333C20.5791 22.5425 20.3587 22.5056 20.1529 22.4251C19.947 22.3445 19.7601 22.222 19.604 22.0653L13 15.3747L6.32671 22.048C6.18026 22.1993 6.00529 22.3201 5.81192 22.4034C5.61854 22.4867 5.41058 22.5308 5.20005 22.5333C4.74034 22.5333 4.29946 22.3507 3.97439 22.0257C3.64933 21.7006 3.46671 21.2597 3.46671 20.8C3.46267 20.5875 3.5021 20.3764 3.58258 20.1797C3.66306 19.983 3.78289 19.8048 3.93471 19.656L10.6774 13L3.93471 6.25734C3.64903 5.97786 3.48151 5.59939 3.46671 5.20001C3.46671 4.7403 3.64933 4.29942 3.97439 3.97436C4.29946 3.64929 4.74034 3.46667 5.20005 3.46667C5.61605 3.47187 6.01471 3.64001 6.30938 3.93467Z" fill="#FFC099"/>
</svg>
