<svg width="1439" height="3556" viewBox="0 0 1439 3556" fill="none" xmlns="http://www.w3.org/2000/svg">
<path d="M95.2499 0C128 89.7726 111.625 215.454 -3 269.318" stroke="#F1DED0" stroke-opacity="0.29" stroke-width="0.9" stroke-linecap="round"/>
<path d="M226.25 0C286.291 134.659 324.5 436.295 -3 565.568" stroke="#F1DED0" stroke-opacity="0.29" stroke-width="0.9" stroke-linecap="round"/>
<path d="M553.75 0C526.458 233.409 380.175 705.613 13.375 727.158" stroke="#F1DED0" stroke-opacity="0.29" stroke-width="0.9" stroke-linecap="round"/>
<path d="M799.374 0C755.708 251.363 537.375 791.795 13.375 942.613" stroke="#F1DED0" stroke-opacity="0.29" stroke-width="0.9" stroke-linecap="round"/>
<path d="M1094.12 0C930.374 305.227 579.95 915.681 488.25 915.681C396.55 915.681 122.542 1436.36 -3 1696.7" stroke="#F1DED0" stroke-opacity="0.29" stroke-width="0.9" stroke-linecap="round"/>
<path d="M1421.62 0C602.875 816.931 -700.574 2671.63 635.625 3555" stroke="#F1DED0" stroke-opacity="0.29" stroke-width="0.9" stroke-linecap="round"/>
<path d="M-3 3177.95C24.2916 3294.65 108.35 3533.45 226.25 3554.99" stroke="#F1DED0" stroke-opacity="0.29" stroke-width="0.9" stroke-linecap="round"/>
<path d="M1438 323.183C750.251 1068.3 -215.874 2364.61 1421.63 1588.98" stroke="#F1DED0" stroke-opacity="0.29" stroke-width="0.9" stroke-linecap="round"/>
<path d="M1421.63 592.503C1034.08 1014.43 340.875 1992.96 1421.63 1373.52" stroke="#F1DED0" stroke-opacity="0.29" stroke-width="0.9" stroke-linecap="round"/>
<path d="M1421.62 1777.5C761.166 1903.18 -19.3746 2477.72 848.499 3555" stroke="#F1DED0" stroke-opacity="0.29" stroke-width="0.9" stroke-linecap="round"/>
<path d="M1438 2100.68C1012.25 2181.48 209.875 2262.27 946.75 3528.07" stroke="#F1DED0" stroke-opacity="0.29" stroke-width="0.9" stroke-linecap="round"/>
<path d="M1421.62 2423.86C1105.04 2450.8 488.249 2289.21 1045 3555" stroke="#F1DED0" stroke-opacity="0.29" stroke-width="0.9" stroke-linecap="round"/>
<path d="M1421.62 2666.25C1214.21 2729.09 782.999 2450.79 1159.62 3555" stroke="#F1DED0" stroke-opacity="0.29" stroke-width="0.9" stroke-linecap="round"/>
<path d="M1438 2941.19C1299.22 2989.91 1039 2619.68 1264.52 3554.99" stroke="#F1DED0" stroke-opacity="0.29" stroke-width="0.9" stroke-linecap="round"/>
<path d="M1388.87 3555H1421.62" stroke="#F1DED0" stroke-opacity="0.29" stroke-width="0.9" stroke-linecap="round"/>
</svg>
