<svg width="50" height="50" viewBox="0 0 50 50" fill="none" xmlns="http://www.w3.org/2000/svg">
<g id="ph:phone-call">
<path id="Vector" d="M29.6289 7.40245C29.6809 7.20383 29.772 7.01757 29.8968 6.8546C30.0217 6.69163 30.1778 6.55522 30.3561 6.45335C30.5344 6.35149 30.7311 6.28623 30.9349 6.26139C31.1388 6.23655 31.3455 6.25264 31.543 6.3087C34.4557 7.0899 37.1116 8.62371 39.244 10.7561C41.3764 12.8885 42.9102 15.5444 43.6914 18.4571C43.7475 18.6546 43.7636 18.8614 43.7387 19.0652C43.7139 19.269 43.6486 19.4658 43.5468 19.644C43.4449 19.8223 43.3085 19.9784 43.1455 20.1033C42.9825 20.2281 42.7963 20.3192 42.5977 20.3712C42.4643 20.4098 42.3263 20.4295 42.1875 20.4298C41.8426 20.4278 41.5081 20.3118 41.2361 20.0998C40.9641 19.8878 40.7698 19.5918 40.6836 19.2579C40.0338 16.8796 38.7751 14.7117 37.0317 12.9684C35.2884 11.225 33.1205 9.96629 30.7422 9.31651C30.5418 9.26668 30.3535 9.17714 30.1883 9.05319C30.0232 8.92924 29.8846 8.7734 29.7808 8.59491C29.677 8.41642 29.61 8.21891 29.5839 8.01408C29.5578 7.80925 29.5731 7.60126 29.6289 7.40245V7.40245ZM29.1211 15.3517C30.4431 15.7136 31.6481 16.4136 32.6173 17.3828C33.5865 18.352 34.2865 19.557 34.6484 20.879C34.7316 21.2146 34.925 21.5125 35.1977 21.725C35.4704 21.9375 35.8066 22.0523 36.1523 22.0509C36.2848 22.0522 36.4167 22.0324 36.543 21.9923C36.7434 21.9425 36.9317 21.8529 37.0968 21.729C37.262 21.605 37.4006 21.4492 37.5044 21.2707C37.6082 21.0922 37.6751 20.8947 37.7012 20.6899C37.7273 20.485 37.712 20.277 37.6562 20.0782C37.163 18.2218 36.1879 16.5287 34.8296 15.1705C33.4714 13.8122 31.7783 12.8371 29.9219 12.3439C29.7181 12.2696 29.501 12.2386 29.2846 12.2528C29.0681 12.2671 28.857 12.3262 28.6646 12.4265C28.4723 12.5268 28.3029 12.666 28.1674 12.8353C28.0318 13.0047 27.9329 13.2004 27.8771 13.41C27.8213 13.6196 27.8098 13.8385 27.8432 14.0529C27.8767 14.2672 27.9544 14.4722 28.0714 14.6549C28.1884 14.8375 28.3422 14.9938 28.5229 15.1138C28.7036 15.2337 28.9073 15.3147 29.1211 15.3517V15.3517ZM45.2344 34.1993C44.8889 36.8368 43.5973 39.2591 41.5999 41.0159C39.6025 42.7726 37.035 43.7442 34.375 43.7501C18.8672 43.7501 6.25 31.1329 6.25 15.6251C6.25586 12.9651 7.22749 10.3977 8.98422 8.40022C10.741 6.40279 13.1633 5.11125 15.8008 4.76573C16.4731 4.69118 17.1518 4.83274 17.7382 5.16988C18.3247 5.50702 18.7886 6.0222 19.0625 6.64073L22.9883 15.8009C23.1919 16.2764 23.2736 16.7952 23.2258 17.3102C23.1781 17.8252 23.0024 18.3202 22.7148 18.7501L19.4727 23.711C20.9408 26.6905 23.3599 29.0959 26.3477 30.547L31.25 27.2853C31.6795 26.9958 32.1757 26.8205 32.6917 26.7761C33.2077 26.7317 33.7266 26.8195 34.1992 27.0314L43.3594 30.9376C43.9779 31.2115 44.4931 31.6754 44.8302 32.2619C45.1674 32.8483 45.3089 33.527 45.2344 34.1993V34.1993ZM42.1289 33.8087L32.9687 29.9025L28.0859 33.1642C27.6367 33.4612 27.1182 33.637 26.581 33.6747C26.0437 33.7123 25.5058 33.6105 25.0195 33.379C21.3807 31.6188 18.4374 28.6892 16.6602 25.0587C16.4258 24.574 16.3207 24.0371 16.3549 23.4998C16.3891 22.9626 16.5616 22.4433 16.8555 21.9923L20.1172 17.0314L16.1914 7.8712C14.3065 8.1135 12.5746 9.03451 11.3199 10.4618C10.0652 11.8891 9.37374 13.7247 9.375 15.6251C9.38017 22.2539 12.0158 28.6098 16.703 33.2971C21.3903 37.9844 27.7462 40.6199 34.375 40.6251C36.2754 40.6264 38.111 39.9349 39.5383 38.6802C40.9656 37.4255 41.8866 35.6936 42.1289 33.8087V33.8087Z" fill="#F5F5F5"/>
</g>
</svg>
